<?xml version="1.0" ?>

<!-- Uploaded to: SVG Repo, www.svgrepo.com, Generator: SVG Repo Mixer Tools -->
<svg fill="#000000" width="40px" height="40px" viewBox="0 0 128 128" id="Layer_1" version="1.1" xml:space="preserve" xmlns="http://www.w3.org/2000/svg" xmlns:xlink="http://www.w3.org/1999/xlink">

<g>

<path d="M32.2,9L1,64l31.2,55h63.5L127,64L95.8,9H32.2z M91.1,111H36.9L10.2,64l26.7-47h54.2l26.7,47L91.1,111z"/>

<path d="M64,35c-16,0-29,13-29,29c0,16,13,29,29,29s29-13,29-29C93,48,80,35,64,35z M64,85c-11.6,0-21-9.4-21-21s9.4-21,21-21   s21,9.4,21,21S75.6,85,64,85z"/>

</g>

</svg>